<svg id="レイヤー_1" data-name="レイヤー 1" xmlns="http://www.w3.org/2000/svg" viewBox="0 0 308.29 56.69"><defs><style>.cls-1{fill:#231815;}</style></defs><title>logo-impv</title><path class="cls-1" d="M32.22,80.85V36.35h8.69v44.5H32.22Z" transform="translate(-32.22 -36.1)"/><path class="cls-1" d="M88.54,80.85V61.16c0-4.44-2.81-5.94-5.38-5.94s-5.44,1.5-5.44,5.75V80.85H69.6V61.16c0-4.44-2.81-5.94-5.38-5.94s-5.44,1.5-5.44,5.94V80.85H50.66V48.29H58.6v3a11.4,11.4,0,0,1,8.13-3.38A10.09,10.09,0,0,1,75.35,52a12.42,12.42,0,0,1,9.75-4.12,11.36,11.36,0,0,1,8,2.88A12.28,12.28,0,0,1,96.67,60V80.85H88.54Z" transform="translate(-32.22 -36.1)"/><path class="cls-1" d="M129.36,78.29a11.34,11.34,0,0,1-7.94,2.94c-3.31,0-5.75-.87-7.88-3.25V92.79h-8.13V48.29h7.88v3.06a9.9,9.9,0,0,1,8.13-3.44,11.34,11.34,0,0,1,7.94,2.94c3.25,3.25,3.31,8.81,3.31,13.69S132.61,75,129.36,78.29ZM119,55.23c-4.87,0-5.5,4-5.5,9.31s0.63,9.38,5.5,9.38,5.5-4.06,5.5-9.38S123.92,55.23,119,55.23Z" transform="translate(-32.22 -36.1)"/><path class="cls-1" d="M158.12,57.16a5.42,5.42,0,0,0-4.31-1.94c-2.5,0-5.25,1.88-5.25,6V80.85h-8.13V48.29h7.94v3.12a11,11,0,0,1,8.19-3.5A9.83,9.83,0,0,1,164.24,51Z" transform="translate(-32.22 -36.1)"/><path class="cls-1" d="M175.24,67.1c0,4.19,2.56,7.25,7.13,7.25a9,9,0,0,0,7.38-3.06l4.94,4.81c-3.31,3.31-6.5,5.13-12.38,5.13-7.69,0-15.06-3.5-15.06-16.69,0-10.63,5.75-16.63,14.19-16.63,9.06,0,14.19,6.63,14.19,15.56V67.1H175.24ZM186.87,58A6.07,6.07,0,0,0,176,58a9,9,0,0,0-.75,3.5h12.38A9,9,0,0,0,186.87,58Z" transform="translate(-32.22 -36.1)"/><path class="cls-1" d="M213.81,81.23c-5.13,0-9.75-.56-13.88-4.69l5.31-5.31c2.69,2.69,6.19,3.06,8.69,3.06,2.81,0,5.75-.94,5.75-3.37,0-1.63-.88-2.75-3.44-3l-5.13-.5c-5.87-.56-9.5-3.12-9.5-9.13,0-6.75,5.94-10.38,12.56-10.38,5.06,0,9.31.87,12.44,3.81l-5,5.06c-1.88-1.69-4.75-2.19-7.56-2.19-3.25,0-4.63,1.5-4.63,3.13,0,1.19.5,2.56,3.38,2.81l5.13,0.5c6.44,0.62,9.69,4.06,9.69,9.56C227.62,77.79,221.5,81.23,213.81,81.23Z" transform="translate(-32.22 -36.1)"/><path class="cls-1" d="M245.13,81.23c-5.13,0-9.75-.56-13.88-4.69l5.31-5.31c2.69,2.69,6.19,3.06,8.69,3.06,2.81,0,5.75-.94,5.75-3.37,0-1.63-.88-2.75-3.44-3l-5.13-.5c-5.87-.56-9.5-3.12-9.5-9.13,0-6.75,5.94-10.38,12.56-10.38,5.06,0,9.31.87,12.44,3.81l-5,5.06c-1.88-1.69-4.75-2.19-7.56-2.19-3.25,0-4.63,1.5-4.63,3.13,0,1.19.5,2.56,3.38,2.81l5.13,0.5c6.44,0.62,9.69,4.06,9.69,9.56C258.94,77.79,252.81,81.23,245.13,81.23Z" transform="translate(-32.22 -36.1)"/><path class="cls-1" d="M265.63,42.72V36.1h8.31v6.63h-8.31Zm0.12,38.13V48.29h8.13V80.85h-8.13Z" transform="translate(-32.22 -36.1)"/><path class="cls-1" d="M297,80.85h-6.38l-12-32.57h8.56l6.63,20.13,6.56-20.13h8.56Z" transform="translate(-32.22 -36.1)"/><path class="cls-1" d="M320.14,67.1c0,4.19,2.56,7.25,7.13,7.25a9,9,0,0,0,7.38-3.06l4.94,4.81c-3.31,3.31-6.5,5.13-12.38,5.13-7.69,0-15.06-3.5-15.06-16.69,0-10.63,5.75-16.63,14.19-16.63,9.06,0,14.19,6.63,14.19,15.56V67.1H320.14ZM331.76,58a6.07,6.07,0,0,0-10.88,0,9,9,0,0,0-.75,3.5h12.38A9,9,0,0,0,331.76,58Z" transform="translate(-32.22 -36.1)"/><rect class="cls-1" y="50.07" width="64.44" height="6.63"/></svg>