<?xml version="1.0" encoding="utf-8"?>
<!-- Generator: Adobe Illustrator 19.2.1, SVG Export Plug-In . SVG Version: 6.00 Build 0)  -->
<svg version="1.1" id="レイヤー_1" xmlns="http://www.w3.org/2000/svg" xmlns:xlink="http://www.w3.org/1999/xlink" x="0px"
	 y="0px" viewBox="0 0 337.3 229.8" style="enable-background:new 0 0 337.3 229.8;" xml:space="preserve">
<style type="text/css">
	.st0{fill:none;}
</style>
<title>section</title>
<path class="st0" d="M44.5,120.4c4.9-3.2,12.4-2.9,16.2,9.9s1.7,17-1.3,19.3s-11.2,4.9-14.9-1.3c-2.7-4.6-5.7-1.6-4.4,1.1
	c1.1,2.5,6.1,13.7,6.7,23.5s-0.7,9.6-2.7,11.3c-2.9,2.5-3.8,3.1-4.3,6.1c-0.8,5.1,1.1,27.7,2.8,33.6c0.8,2.9,1,3.8-1.3,4.6
	s-12.4,2.1-14.7,1s-3.1-0.2-3.4-3.6s0-27.3,0-31.5s-2.7-3.8-5-5.5s-9.9-3.4-4.8-24.6c1.1-4,1.9-5-0.8-9.7s-5-6.3-2.5-11.3
	s7.2-9.4,8.6-10.5s2.9-0.8,4.6,0.8s3.6,2.9,6.5,1.5c3.6-1.7,7.1-3.6,10.5-5.7C43.4,127.1,40.7,122.9,44.5,120.4z"/>
<path class="st0" d="M292.8,120.4c-4.9-3.2-12.4-2.9-16.2,9.9s-1.7,17,1.3,19.3s11.2,4.9,14.9-1.3c2.7-4.6,5.7-1.6,4.4,1.1
	c-1.1,2.5-6.1,13.7-6.7,23.5s0.7,9.6,2.7,11.3c2.9,2.5,3.8,3.1,4.3,6.1c0.8,5.1-1.1,27.7-2.8,33.6c-0.8,2.9-1,3.8,1.3,4.6
	s12.4,2.1,14.7,1s3-0.2,3.4-3.6s0-27.3,0-31.5s2.7-3.8,5-5.5s9.9-3.4,4.8-24.6c-1.1-4-1.9-5,0.8-9.7s5-6.3,2.5-11.3
	s-7.2-9.4-8.6-10.5s-2.9-0.8-4.6,0.8s-3.6,2.9-6.5,1.5c-3.6-1.7-7.2-3.6-10.6-5.8C294,127.1,296.6,122.9,292.8,120.4z"/>
<path class="st0" d="M317.6,21.8c-37.6-37.8-72.4-18.9-95,0l-4.8,1.7c0.1-2.4,0.2-4.7,0.2-6.9c0-1.3-1-2.4-2.3-2.4
	c-0.8,0-1.5,0.3-2,1c-6.6,8.6-35.1,8.8-45.1,8.8l0,0c-10,0-38.5-0.2-45.1-8.8c-0.8-1.1-2.2-1.3-3.3-0.5c-0.6,0.5-1,1.2-1,2
	c0,2.2,0.1,4.5,0.2,6.9l-4.8-1.7c-22.6-18.9-57.4-37.8-95,0c-29.4,29.5-25.8,66.4,10,103.8c1.5-0.7,2.8-1.4,3.8-1.9
	c4.5-2.6,1.8-5.4,7.2-8.7c9.6-5.7,23.8-3.5,29.4,12.4s0.5,22.9-5.2,26.6c-2,1.3,1.5,2.5,2.2,3c-9.9,12-4.4,44.1,24.9,50.4
	s49.9-21.2,76.5-21.2l0,0c26.6,0,47.1,27.5,76.5,21.2s34.8-38.4,24.9-50.4c0.7-0.5,4.2-1.7,2.2-3c-5.6-3.6-10.8-10.7-5.2-26.6
	s19.8-18.1,29.4-12.4c5.5,3.3,2.7,6.1,7.2,8.7c1,0.6,2.3,1.2,3.8,1.9C343.4,88.2,347,51.3,317.6,21.8z"/>
</svg>
